PathFileType	4	(X/Y/Z)	/Users/itak/Documents/Research/Walk-IL/dataset/trc/00436_00167.trc
DataRate	CameraRate	NumFrames	NumMarkers	Units	OrigDataRate	OrigDataStartFrame	OrigNumFrames
100.000000	100.000000	4	56	mm	100.000000	0	470
Frame#	Time	RPSI			LPSI			L3			STRN			T10			C7			CLAV			RBAK			LBAK			LSHO			LUPA			LAEL			LAOL			LWTS			LWPS			LFRA			LIFD			LHPS			LHTS			RSHO			RUPA			RAEL			RAOL			RWTS			RWPS			RFRA			RIFD			RHTS			RHPS			RBHD			LFHD			RFHD			LBHD			LHIP			RHIP			RASI			LASI			LKNE			LTHI			LANK			LTIP			LTOE			LMT1			LMT5			LHEE			RKNE			RTHI			RANK			RTIP			RTOE			RMT1			RMT5			RHEE			*53			*54			*55			
		X1	Y1	Z1	X2	Y2	Z2	X3	Y3	Z3	X4	Y4	Z4	X5	Y5	Z5	X6	Y6	Z6	X7	Y7	Z7	X8	Y8	Z8	X9	Y9	Z9	X10	Y10	Z10	X11	Y11	Z11	X12	Y12	Z12	X13	Y13	Z13	X14	Y14	Z14	X15	Y15	Z15	X16	Y16	Z16	X17	Y17	Z17	X18	Y18	Z18	X19	Y19	Z19	X20	Y20	Z20	X21	Y21	Z21	X22	Y22	Z22	X23	Y23	Z23	X24	Y24	Z24	X25	Y25	Z25	X26	Y26	Z26	X27	Y27	Z27	X28	Y28	Z28	X29	Y29	Z29	X30	Y30	Z30	X31	Y31	Z31	X32	Y32	Z32	X33	Y33	Z33	X34	Y34	Z34	X35	Y35	Z35	X36	Y36	Z36	X37	Y37	Z37	X38	Y38	Z38	X39	Y39	Z39	X40	Y40	Z40	X41	Y41	Z41	X42	Y42	Z42	X43	Y43	Z43	X44	Y44	Z44	X45	Y45	Z45	X46	Y46	Z46	X47	Y47	Z47	X48	Y48	Z48	X49	Y49	Z49	X50	Y50	Z50	X51	Y51	Z51	X52	Y52	Z52	X53	Y53	Z53	X54	Y54	Z54	X55	Y55	Z55	X56	Y56	Z56	

1	0	-1187.066284179688	968.3716430664062	-433.5515747070312	-1112.314819335938	964.2067260742188	-553.0870971679688	-1154.520141601562	1054.267211914062	-479.1364135742188	-925.75	1257.270874023438	-366.4910583496094	-1177.830078125	1176.82177734375	-495.17919921875	-1134.546630859375	1447.261474609375	-459.2480773925781	-960.337646484375	1369.25732421875	-389.3294067382812	-1229.569946289062	1326.775268554688	-397.2254333496094	-1115.667114257812	1398.900146484375	-562.9078369140625	-985.7276000976562	1419.57763671875	-586.6397094726562	-940.3488159179688	1298.325927734375	-672.9335327148438	-893.7734375	1080.617065429688	-674.4219360351562	-995.8491821289062	1063.584228515625	-666.7225341796875	-848.929443359375	883.99462890625	-580.8404541015625	-854.0870971679688	864.1998901367188	-652.1990356445312	-868.8411865234375	993.9251098632812	-665.4129638671875	-842.6714477539062	714.4950561523438	-572.7634887695312	-848.205078125	784.0302124023438	-643.7294311523438	-829.8909912109375	794.1322631835938	-574.9781494140625	-1136.3232421875	1417.733154296875	-280.6406860351562	-1177.361450195312	1354.156372070312	-215.9247589111328	-1165.401733398438	1064.414184570312	-157.5354309082031	-1206.751220703125	1045.525024414062	-207.6057739257812	-1040.369873046875	872.8590698242188	-181.8928985595703	-1115.652099609375	849.9442749023438	-141.4687652587891	-1159.075805664062	1006.012329101562	-148.0583801269531	-1027.680908203125	714.0574340820312	-178.6996002197266	-1019.552795410156	774.1739501953125	-168.0744018554688	-1089.83447265625	765.006103515625	-141.0115966796875	-1119.840209960938	1641.069458007812	-362.0568542480469	-924.1319580078125	1675.515258789062	-424.5022583007812	-993.7266235351562	1673.690063476562	-313.3273315429688	-1038.810546875	1646.201416015625	-521.036376953125	-939.948486328125	859.4813842773438	-582.5669555664062	-1164.359375	862.4912109375	-256.0435180664062	-1041.313720703125	902.2326049804688	-250.7472534179688	-893.0255126953125	896.9734497070312	-463.379638671875	-984.2053833007812	437.2650451660156	-546.9019775390625	-940.8663940429688	587.885009765625	-553.9722900390625	-1059.060546875	32.88780212402344	-563.5730590820312	-992.1065063476562	286.1651611328125	-553.4959716796875	-905.9385986328125	45.31011199951172	-387.6299743652344	-983.9263916015625	49.86480712890625	-401.7778625488281	-924.1585083007812	46.17509078979492	-498.8120422363281	-1132.1552734375	36.9035530090332	-550.5960083007812	-1140.726806640625	464.7646179199219	-289.2120361328125	-1133.803344726562	724.8612670898438	-228.2834777832031	-1176.33447265625	43.07321929931641	-329.6964416503906	-1151.156372070312	319.2334594726562	-285.4121398925781	-969.9064331054688	48.8786506652832	-260.182373046875	-1004.332397460938	53.91090774536133	-323.3973083496094	-1075.138793945312	48.04511642456055	-240.4284210205078	-1210.70654296875	34.85223770141602	-402.2551879882812	nan	nan	nan	nan	nan	nan	nan	nan	nan	
2	0.01	-1187.090942382812	968.32861328125	-433.6217956542969	-1112.344360351562	964.2182006835938	-553.1643676757812	-1154.560424804688	1054.2666015625	-479.21240234375	-925.7281494140625	1257.265747070312	-366.5788879394531	-1177.784423828125	1176.819458007812	-495.27685546875	-1134.480590820312	1447.264038085938	-459.3183288574219	-960.2816162109375	1369.250122070312	-389.4348754882812	-1229.528198242188	1326.78662109375	-397.3046264648438	-1115.6513671875	1398.91552734375	-562.9559326171875	-985.722412109375	1419.594482421875	-586.72998046875	-940.4769897460938	1298.270263671875	-673.0802001953125	-894.1109008789062	1080.535278320312	-674.513671875	-996.204833984375	1063.609741210938	-666.8585815429688	-849.577392578125	883.8381958007812	-580.9517822265625	-854.732177734375	864.041748046875	-652.37255859375	-869.3336181640625	993.8297729492188	-665.531982421875	-843.4707641601562	714.3663330078125	-572.8624267578125	-848.7814331054688	783.8514404296875	-643.7310180664062	-830.4158935546875	794.029541015625	-575.1016235351562	-1136.283447265625	1417.693481445312	-280.682373046875	-1177.344116210938	1354.071044921875	-216.0052337646484	-1165.501220703125	1064.283325195312	-157.8840789794922	-1206.794677734375	1045.447143554688	-208.0484008789062	-1040.53076171875	872.680908203125	-182.3187103271484	-1115.909545898438	849.8128051757812	-141.9644622802734	-1159.227294921875	1005.871887207031	-148.4535369873047	-1027.956176757812	713.85595703125	-179.1984100341797	-1019.825134277344	773.9856567382812	-168.4455261230469	-1090.204711914062	764.7696533203125	-141.4760131835938	-1119.739624023438	1641.027709960938	-362.1531982421875	-924.1083984375	1675.50439453125	-424.5508728027344	-993.6683959960938	1673.675659179688	-313.3731689453125	-1038.791137695312	1646.197631835938	-521.0808715820312	-939.9172973632812	859.4673461914062	-582.6025390625	-1164.354858398438	862.4918823242188	-256.0911254882812	-1041.267822265625	902.2579956054688	-250.8117218017578	-893.0486450195312	896.980224609375	-463.5172729492188	-984.0631103515625	437.2991638183594	-546.84912109375	-940.7499389648438	587.90771484375	-554.000244140625	-1059.06005859375	32.88209915161133	-563.5762329101562	-992.0942993164062	286.1381225585938	-553.4867553710938	-905.9432983398438	45.31980895996094	-387.638671875	-983.9325561523438	49.86680603027344	-401.7698364257812	-924.1668701171875	46.17578506469727	-498.8162841796875	-1132.120239257812	36.86075973510742	-550.6162719726562	-1140.611938476562	464.7580261230469	-289.2075500488281	-1133.797119140625	724.8543090820312	-228.2935028076172	-1176.337280273438	43.08341979980469	-329.7089538574219	-1151.052368164062	319.210693359375	-285.4048461914062	-969.908447265625	48.88193511962891	-260.1739196777344	-1004.358642578125	53.93120574951172	-323.3447875976562	-1075.1328125	48.04864501953125	-240.4376220703125	-1210.70458984375	34.84944534301758	-402.2549133300781	nan	nan	nan	nan	nan	nan	nan	nan	nan	
3	0.02	-1187.114501953125	968.2791748046875	-433.7137451171875	-1112.378662109375	964.2240600585938	-553.2627563476562	-1154.60986328125	1054.267456054688	-479.3081970214844	-925.7041625976562	1257.258544921875	-366.6836547851562	-1177.735473632812	1176.821411132812	-495.390869140625	-1134.394165039062	1447.268188476562	-459.4101257324219	-960.2091674804688	1369.241943359375	-389.5643005371094	-1229.472900390625	1326.804443359375	-397.3988037109375	-1115.630981445312	1398.9365234375	-563.0152587890625	-985.7113647460938	1419.614868164062	-586.84716796875	-940.6266479492188	1298.208862304688	-673.2586669921875	-894.5496826171875	1080.428955078125	-674.64013671875	-996.6458129882812	1063.656372070312	-667.0213623046875	-850.3658447265625	883.6359252929688	-581.0806884765625	-855.521728515625	863.8394165039062	-652.5786743164062	-869.9340209960938	993.69775390625	-665.6890869140625	-844.4909057617188	714.1948852539062	-572.995849609375	-849.5525512695312	783.61669921875	-643.7572631835938	-831.1475830078125	793.87744140625	-575.2685546875	-1136.225952148438	1417.645263671875	-280.7322998046875	-1177.317138671875	1353.972412109375	-216.0972137451172	-1165.632568359375	1064.125366210938	-158.3058013916016	-1206.854248046875	1045.352905273438	-208.6001586914062	-1040.759155273438	872.4609375	-182.7878570556641	-1116.2646484375	849.6427001953125	-142.5882415771484	-1159.428833007812	1005.699951171875	-148.9361114501953	-1028.316162109375	713.6111450195312	-179.7868499755859	-1020.186462402344	773.7465209960938	-168.8601226806641	-1090.696899414062	764.488525390625	-142.0591735839844	-1119.611572265625	1640.973022460938	-362.2627563476562	-924.0774536132812	1675.485717773438	-424.6197814941406	-993.59228515625	1673.657348632812	-313.4319763183594	-1038.765747070312	1646.192504882812	-521.1356811523438	-939.87353515625	859.442626953125	-582.65478515625	-1164.3427734375	862.4912109375	-256.1576538085938	-1041.205200195312	902.2885131835938	-250.9018402099609	-893.0729370117188	896.9849243164062	-463.7024230957031	-983.909423828125	437.3318481445312	-546.7984008789062	-940.65283203125	587.911865234375	-554.0517578125	-1059.060791015625	32.8753776550293	-563.5776977539062	-992.0748291015625	286.1093139648438	-553.4794311523438	-905.94970703125	45.32944488525391	-387.6487426757812	-983.9400024414062	49.86924362182617	-401.761474609375	-924.1776733398438	46.17664337158203	-498.8188171386719	-1132.088745117188	36.81893539428711	-550.635009765625	-1140.4716796875	464.7527770996094	-289.2022399902344	-1133.787475585938	724.8457641601562	-228.3082885742188	-1176.336791992188	43.09563064575195	-329.7227783203125	-1150.9248046875	319.1845397949219	-285.4014587402344	-969.9099731445312	48.88493728637695	-260.1652526855469	-1004.393798828125	53.95570373535156	-323.279296875	-1075.125	48.05194854736328	-240.4494781494141	-1210.700927734375	34.84862899780273	-402.2553405761719	nan	nan	nan	nan	nan	nan	nan	nan	nan	
4	0.03	-1187.13232421875	968.227783203125	-433.8262634277344	-1112.414672851562	964.2206420898438	-553.3792724609375	-1154.6650390625	1054.270141601562	-479.4196166992188	-925.6796264648438	1257.248901367188	-366.7994995117188	-1177.689086914062	1176.82958984375	-495.5130920410156	-1134.290649414062	1447.273559570312	-459.5205688476562	-960.1222534179688	1369.233032226562	-389.7110290527344	-1229.40576171875	1326.82861328125	-397.5004577636719	-1115.60693359375	1398.96240234375	-563.0826416015625	-985.6937866210938	1419.63720703125	-586.9873046875	-940.78857421875	1298.147827148438	-673.4597778320312	-895.0718994140625	1080.300415039062	-674.7998657226562	-997.1499633789062	1063.728881835938	-667.199951171875	-851.2576293945312	883.394775390625	-581.2225341796875	-856.41845703125	863.6011962890625	-652.8058471679688	-870.6092529296875	993.5294799804688	-665.8807983398438	-845.6937866210938	713.9833984375	-573.1656494140625	-850.5042114257812	783.333251953125	-643.8189086914062	-832.0806274414062	793.668212890625	-575.4733276367188	-1136.149291992188	1417.591064453125	-280.7876281738281	-1177.278442382812	1353.8681640625	-216.1929321289062	-1165.794555664062	1063.94921875	-158.7766876220703	-1206.933715820312	1045.250122070312	-209.2265167236328	-1041.057006835938	872.2108764648438	-183.2466278076172	-1116.716186523438	849.438720703125	-143.3101196289062	-1159.677490234375	1005.506591796875	-149.4800415039062	-1028.754150390625	713.339111328125	-180.4115905761719	-1020.628356933594	773.4657592773438	-169.2757568359375	-1091.302612304688	764.1806030273438	-142.7315063476562	-1119.461303710938	1640.9072265625	-362.3746643066406	-924.0396728515625	1675.45703125	-424.7098388671875	-993.4996948242188	1673.635009765625	-313.501708984375	-1038.734130859375	1646.186157226562	-521.1972045898438	-939.8194580078125	859.4063720703125	-582.7269287109375	-1164.320678710938	862.489013671875	-256.2435913085938	-1041.1259765625	902.3222045898438	-251.017578125	-893.0943603515625	896.986328125	-463.9325561523438	-983.7648315429688	437.3562927246094	-546.7605590820312	-940.5889892578125	587.8944091796875	-554.1265258789062	-1059.063232421875	32.86840438842773	-563.5772705078125	-992.0480346679688	286.0812072753906	-553.4764404296875	-905.9567260742188	45.33797836303711	-387.6596984863281	-983.9480590820312	49.87177658081055	-401.7542724609375	-924.1897583007812	46.17774963378906	-498.8188781738281	-1132.064453125	36.78251266479492	-550.6498413085938	-1140.314697265625	464.7506408691406	-289.1968994140625	-1133.774780273438	724.8363037109375	-228.3282928466797	-1176.332397460938	43.10931396484375	-329.7364196777344	-1150.780883789062	319.1574096679688	-285.4038696289062	-969.9118041992188	48.88776779174805	-260.1572570800781	-1004.434814453125	53.98011016845703	-323.2091369628906	-1075.115478515625	48.05483627319336	-240.4637908935547	-1210.695068359375	34.84992599487305	-402.256591796875	nan	nan	nan	nan	nan	nan	nan	nan	nan	
